<svg width="1068" height="568" viewBox="0 0 1068 568" class="keymap" xmlns="http://www.w3.org/2000/svg" xmlns:xlink="http://www.w3.org/1999/xlink">
<style>/* inherit to force styles through use tags */
svg path {
    fill: inherit;
}

/* font and background color specifications */
svg.keymap {
    font-family: SFMono-Regular,Consolas,Liberation Mono,Menlo,monospace;
    font-size: 14px;
    font-kerning: normal;
    text-rendering: optimizeLegibility;
    fill: #24292e;
}

/* default key styling */
rect.key {
    fill: #f6f8fa;
}

rect.key, rect.combo {
    stroke: #c9cccf;
    stroke-width: 1;
}

/* default key side styling, only used is draw_key_sides is set */
rect.side {
    filter: brightness(90%);
}

/* color accent for combo boxes */
rect.combo, rect.combo-separate {
    fill: #cdf;
}

/* color accent for held keys */
rect.held, rect.combo.held {
    fill: #fdd;
}

/* color accent for ghost (optional) keys */
rect.ghost, rect.combo.ghost {
    stroke-dasharray: 4, 4;
    stroke-width: 2;
}

text {
    text-anchor: middle;
    dominant-baseline: middle;
}

/* styling for layer labels */
text.label {
    font-weight: bold;
    text-anchor: start;
    stroke: white;
    stroke-width: 4;
    paint-order: stroke;
}

/* styling for optional footer */
text.footer {
    text-anchor: end;
    dominant-baseline: auto;
    stroke: white;
    stroke-width: 4;
    paint-order: stroke;
}

/* styling for combo tap, and key non-tap label text */
text.combo, text.hold, text.shifted, text.left, text.right, text.tl, text.tr, text.bl, text.br {
    font-size: 11px;
}

text.hold, text.bl, text.br {
    text-anchor: middle;
    dominant-baseline: auto;
}

text.shifted, text.tl, text.tr {
    text-anchor: middle;
    dominant-baseline: hanging;
}

text.left, text.tl, text.bl {
    text-anchor: start;
}

text.right, text.tr, text.br {
    text-anchor: end;
}

text.layer-activator {
    text-decoration: underline;
}

/* styling for hold/shifted label text in combo box */
text.combo.hold, text.combo.shifted, text.combo.left, text.combo.right {
    font-size: 8px;
}

/* lighter symbol for transparent keys */
text.trans {
    fill: #7b7e81;
}

/* styling for combo dendrons */
path.combo {
    stroke-width: 1;
    stroke: gray;
    fill: none;
}

/* Start Tabler Icons Cleanup */
/* cannot use height/width with glyphs */
.icon-tabler > path {
    fill: inherit;
    stroke: inherit;
    stroke-width: 2;
}
/* hide tabler's default box */
.icon-tabler > path[stroke="none"][fill="none"] {
    visibility: hidden;
}
/* End Tabler Icons Cleanup */
</style>
<g transform="translate(30, 0)" class="layer-default">
<text x="0" y="28" class="label" id="default">default:</text>
<g transform="translate(0, 56)">
<g transform="translate(28, 56)" class="key keypos-0">
<rect rx="6" ry="6" x="-26" y="-26" width="52" height="52" class="key"/>
<text x="0" y="0" class="key tap">F1</text>
</g>
<g transform="translate(84, 56)" class="key keypos-1">
<rect rx="6" ry="6" x="-26" y="-26" width="52" height="52" class="key"/>
<text x="0" y="0" class="key tap">F2</text>
</g>
<g transform="translate(140, 28)" class="key keypos-2">
<rect rx="6" ry="6" x="-26" y="-26" width="52" height="52" class="key"/>
<text x="0" y="0" class="key tap">F3</text>
</g>
<g transform="translate(196, 28)" class="key keypos-3">
<rect rx="6" ry="6" x="-26" y="-26" width="52" height="52" class="key"/>
<text x="0" y="0" class="key tap">F4</text>
</g>
<g transform="translate(252, 28)" class="key keypos-4">
<rect rx="6" ry="6" x="-26" y="-26" width="52" height="52" class="key"/>
<text x="0" y="0" class="key tap">F5</text>
</g>
<g transform="translate(756, 28)" class="key keypos-5">
<rect rx="6" ry="6" x="-26" y="-26" width="52" height="52" class="key"/>
<text x="0" y="0" class="key tap">F6</text>
</g>
<g transform="translate(812, 28)" class="key keypos-6">
<rect rx="6" ry="6" x="-26" y="-26" width="52" height="52" class="key"/>
<text x="0" y="0" class="key tap">F7</text>
</g>
<g transform="translate(868, 28)" class="key keypos-7">
<rect rx="6" ry="6" x="-26" y="-26" width="52" height="52" class="key"/>
<text x="0" y="0" class="key tap">F8</text>
</g>
<g transform="translate(924, 56)" class="key keypos-8">
<rect rx="6" ry="6" x="-26" y="-26" width="52" height="52" class="key"/>
<text x="0" y="0" class="key tap">F9</text>
</g>
<g transform="translate(980, 56)" class="key keypos-9">
<rect rx="6" ry="6" x="-26" y="-26" width="52" height="52" class="key"/>
<text x="0" y="0" class="key tap">F10</text>
</g>
<g transform="translate(28, 112)" class="key keypos-10">
<rect rx="6" ry="6" x="-26" y="-26" width="52" height="52" class="key"/>
<text x="0" y="0" class="key tap">=</text>
</g>
<g transform="translate(84, 112)" class="key keypos-11">
<rect rx="6" ry="6" x="-26" y="-26" width="52" height="52" class="key"/>
<text x="0" y="0" class="key tap">1</text>
</g>
<g transform="translate(140, 84)" class="key keypos-12">
<rect rx="6" ry="6" x="-26" y="-26" width="52" height="52" class="key"/>
<text x="0" y="0" class="key tap">2</text>
</g>
<g transform="translate(196, 84)" class="key keypos-13">
<rect rx="6" ry="6" x="-26" y="-26" width="52" height="52" class="key"/>
<text x="0" y="0" class="key tap">3</text>
</g>
<g transform="translate(252, 84)" class="key keypos-14">
<rect rx="6" ry="6" x="-26" y="-26" width="52" height="52" class="key"/>
<text x="0" y="0" class="key tap">4</text>
</g>
<g transform="translate(308, 84)" class="key keypos-15">
<rect rx="6" ry="6" x="-26" y="-26" width="52" height="52" class="key"/>
<text x="0" y="0" class="key tap">5</text>
</g>
<g transform="translate(700, 84)" class="key keypos-16">
<rect rx="6" ry="6" x="-26" y="-26" width="52" height="52" class="key"/>
<text x="0" y="0" class="key tap">6</text>
</g>
<g transform="translate(756, 84)" class="key keypos-17">
<rect rx="6" ry="6" x="-26" y="-26" width="52" height="52" class="key"/>
<text x="0" y="0" class="key tap">7</text>
</g>
<g transform="translate(812, 84)" class="key keypos-18">
<rect rx="6" ry="6" x="-26" y="-26" width="52" height="52" class="key"/>
<text x="0" y="0" class="key tap">8</text>
</g>
<g transform="translate(868, 84)" class="key keypos-19">
<rect rx="6" ry="6" x="-26" y="-26" width="52" height="52" class="key"/>
<text x="0" y="0" class="key tap">9</text>
</g>
<g transform="translate(924, 112)" class="key keypos-20">
<rect rx="6" ry="6" x="-26" y="-26" width="52" height="52" class="key"/>
<text x="0" y="0" class="key tap">0</text>
</g>
<g transform="translate(980, 112)" class="key keypos-21">
<rect rx="6" ry="6" x="-26" y="-26" width="52" height="52" class="key"/>
<text x="0" y="0" class="key tap">-</text>
</g>
<g transform="translate(28, 168)" class="key keypos-22">
<rect rx="6" ry="6" x="-26" y="-26" width="52" height="52" class="key"/>
<text x="0" y="0" class="key tap">TAB</text>
</g>
<g transform="translate(84, 168)" class="key keypos-23">
<rect rx="6" ry="6" x="-26" y="-26" width="52" height="52" class="key"/>
<text x="0" y="0" class="key tap">Q</text>
</g>
<g transform="translate(140, 140)" class="key keypos-24">
<rect rx="6" ry="6" x="-26" y="-26" width="52" height="52" class="key"/>
<text x="0" y="0" class="key tap">W</text>
</g>
<g transform="translate(196, 140)" class="key keypos-25">
<rect rx="6" ry="6" x="-26" y="-26" width="52" height="52" class="key"/>
<text x="0" y="0" class="key tap">E</text>
</g>
<g transform="translate(252, 140)" class="key keypos-26">
<rect rx="6" ry="6" x="-26" y="-26" width="52" height="52" class="key"/>
<text x="0" y="0" class="key tap">R</text>
</g>
<g transform="translate(308, 140)" class="key keypos-27">
<rect rx="6" ry="6" x="-26" y="-26" width="52" height="52" class="key"/>
<text x="0" y="0" class="key tap">T</text>
</g>
<g transform="translate(700, 140)" class="key keypos-28">
<rect rx="6" ry="6" x="-26" y="-26" width="52" height="52" class="key"/>
<text x="0" y="0" class="key tap">Y</text>
</g>
<g transform="translate(756, 140)" class="key keypos-29">
<rect rx="6" ry="6" x="-26" y="-26" width="52" height="52" class="key"/>
<text x="0" y="0" class="key tap">U</text>
</g>
<g transform="translate(812, 140)" class="key keypos-30">
<rect rx="6" ry="6" x="-26" y="-26" width="52" height="52" class="key"/>
<text x="0" y="0" class="key tap">I</text>
</g>
<g transform="translate(868, 140)" class="key keypos-31">
<rect rx="6" ry="6" x="-26" y="-26" width="52" height="52" class="key"/>
<text x="0" y="0" class="key tap">O</text>
</g>
<g transform="translate(924, 168)" class="key keypos-32">
<rect rx="6" ry="6" x="-26" y="-26" width="52" height="52" class="key"/>
<text x="0" y="0" class="key tap">P</text>
</g>
<g transform="translate(980, 168)" class="key keypos-33">
<rect rx="6" ry="6" x="-26" y="-26" width="52" height="52" class="key"/>
<text x="0" y="0" class="key tap">\</text>
</g>
<g transform="translate(28, 224)" class="key keypos-34">
<rect rx="6" ry="6" x="-26" y="-26" width="52" height="52" class="key"/>
<text x="0" y="0" class="key tap">ESC</text>
</g>
<g transform="translate(84, 224)" class="key keypos-35">
<rect rx="6" ry="6" x="-26" y="-26" width="52" height="52" class="key"/>
<text x="0" y="0" class="key tap">A</text>
<text x="0" y="24" class="key hold">LGUI</text>
</g>
<g transform="translate(140, 196)" class="key keypos-36">
<rect rx="6" ry="6" x="-26" y="-26" width="52" height="52" class="key"/>
<text x="0" y="0" class="key tap">S</text>
<text x="0" y="24" class="key hold">LALT</text>
</g>
<g transform="translate(196, 196)" class="key keypos-37">
<rect rx="6" ry="6" x="-26" y="-26" width="52" height="52" class="key"/>
<text x="0" y="0" class="key tap">D</text>
<text x="0" y="24" class="key hold">LCTRL</text>
</g>
<g transform="translate(252, 196)" class="key keypos-38">
<rect rx="6" ry="6" x="-26" y="-26" width="52" height="52" class="key"/>
<text x="0" y="0" class="key tap">F</text>
<text x="0" y="24" class="key hold">LSHFT</text>
</g>
<g transform="translate(308, 196)" class="key keypos-39">
<rect rx="6" ry="6" x="-26" y="-26" width="52" height="52" class="key"/>
<text x="0" y="0" class="key tap">G</text>
</g>
<g transform="translate(700, 196)" class="key keypos-40">
<rect rx="6" ry="6" x="-26" y="-26" width="52" height="52" class="key"/>
<text x="0" y="0" class="key tap">H</text>
</g>
<g transform="translate(756, 196)" class="key keypos-41">
<rect rx="6" ry="6" x="-26" y="-26" width="52" height="52" class="key"/>
<text x="0" y="0" class="key tap">J</text>
<text x="0" y="24" class="key hold">LSHFT</text>
</g>
<g transform="translate(812, 196)" class="key keypos-42">
<rect rx="6" ry="6" x="-26" y="-26" width="52" height="52" class="key"/>
<text x="0" y="0" class="key tap">K</text>
<text x="0" y="24" class="key hold">LCTRL</text>
</g>
<g transform="translate(868, 196)" class="key keypos-43">
<rect rx="6" ry="6" x="-26" y="-26" width="52" height="52" class="key"/>
<text x="0" y="0" class="key tap">L</text>
<text x="0" y="24" class="key hold">LALT</text>
</g>
<g transform="translate(924, 224)" class="key keypos-44">
<rect rx="6" ry="6" x="-26" y="-26" width="52" height="52" class="key"/>
<text x="0" y="0" class="key tap">;</text>
<text x="0" y="24" class="key hold">LGUI</text>
</g>
<g transform="translate(980, 224)" class="key keypos-45">
<rect rx="6" ry="6" x="-26" y="-26" width="52" height="52" class="key"/>
<text x="0" y="0" class="key tap">&#x27;</text>
</g>
<g transform="translate(28, 280)" class="key keypos-46">
<rect rx="6" ry="6" x="-26" y="-26" width="52" height="52" class="key"/>
<text x="0" y="0" class="key tap">`</text>
</g>
<g transform="translate(84, 280)" class="key keypos-47">
<rect rx="6" ry="6" x="-26" y="-26" width="52" height="52" class="key"/>
<text x="0" y="0" class="key tap">Z</text>
</g>
<g transform="translate(140, 252)" class="key keypos-48">
<rect rx="6" ry="6" x="-26" y="-26" width="52" height="52" class="key"/>
<text x="0" y="0" class="key tap">X</text>
</g>
<g transform="translate(196, 252)" class="key keypos-49">
<rect rx="6" ry="6" x="-26" y="-26" width="52" height="52" class="key"/>
<text x="0" y="0" class="key tap">C</text>
</g>
<g transform="translate(252, 252)" class="key keypos-50">
<rect rx="6" ry="6" x="-26" y="-26" width="52" height="52" class="key"/>
<text x="0" y="0" class="key tap">V</text>
</g>
<g transform="translate(308, 252)" class="key keypos-51">
<rect rx="6" ry="6" x="-26" y="-26" width="52" height="52" class="key"/>
<text x="0" y="0" class="key tap">B</text>
</g>
<g transform="translate(367, 306) rotate(20.0)" class="key keypos-52">
<rect rx="6" ry="6" x="-26" y="-26" width="52" height="52" class="key"/>
<text x="0" y="0" class="key tap">number</text>
</g>
<g transform="translate(419, 329) rotate(30.0)" class="key keypos-53">
<rect rx="6" ry="6" x="-26" y="-26" width="52" height="52" class="key"/>
<text x="0" y="0" class="key tap">
<tspan x="0" dy="-0.6em">Caps</tspan><tspan x="0" dy="1.2em">Word</tspan>
</text>
</g>
<g transform="translate(466, 365) rotate(45.0)" class="key keypos-54">
<rect rx="6" ry="6" x="-26" y="-26" width="52" height="52" class="key"/>
<text x="0" y="0" class="key tap">Lower</text>
</g>
<g transform="translate(546, 361) rotate(-45.0)" class="key keypos-55">
<rect rx="6" ry="6" x="-26" y="-26" width="52" height="52" class="key"/>
<text x="0" y="0" class="key tap">CAPS</text>
</g>
<g transform="translate(594, 327) rotate(-30.0)" class="key keypos-56">
<rect rx="6" ry="6" x="-26" y="-26" width="52" height="52" class="key"/>
</g>
<g transform="translate(646, 304) rotate(-20.0)" class="key keypos-57">
<rect rx="6" ry="6" x="-26" y="-26" width="52" height="52" class="key"/>
<text x="0" y="0" class="key tap">system</text>
</g>
<g transform="translate(700, 252)" class="key keypos-58">
<rect rx="6" ry="6" x="-26" y="-26" width="52" height="52" class="key"/>
<text x="0" y="0" class="key tap">N</text>
</g>
<g transform="translate(756, 252)" class="key keypos-59">
<rect rx="6" ry="6" x="-26" y="-26" width="52" height="52" class="key"/>
<text x="0" y="0" class="key tap">M</text>
</g>
<g transform="translate(812, 252)" class="key keypos-60">
<rect rx="6" ry="6" x="-26" y="-26" width="52" height="52" class="key"/>
<text x="0" y="0" class="key tap">,</text>
</g>
<g transform="translate(868, 252)" class="key keypos-61">
<rect rx="6" ry="6" x="-26" y="-26" width="52" height="52" class="key"/>
<text x="0" y="0" class="key tap">.</text>
</g>
<g transform="translate(924, 280)" class="key keypos-62">
<rect rx="6" ry="6" x="-26" y="-26" width="52" height="52" class="key"/>
<text x="0" y="0" class="key tap">/</text>
</g>
<g transform="translate(980, 280)" class="key keypos-63">
<rect rx="6" ry="6" x="-26" y="-26" width="52" height="52" class="key"/>
<text x="0" y="0" class="key tap">
<tspan x="0" dy="-0.6em">PG</tspan><tspan x="0" dy="1.2em">UP</tspan>
</text>
</g>
<g transform="translate(28, 336)" class="key keypos-64">
<rect rx="6" ry="6" x="-26" y="-26" width="52" height="52" class="key"/>
<text x="0" y="0" class="key tap">
<tspan x="0" dy="-0.9em">RGB</tspan><tspan x="0" dy="1.2em">Status</tspan>
</text>
<text x="0" y="24" class="key hold">magic</text>
</g>
<g transform="translate(84, 336)" class="key keypos-65">
<rect rx="6" ry="6" x="-26" y="-26" width="52" height="52" class="key"/>
<text x="0" y="0" class="key tap">HOME</text>
</g>
<g transform="translate(140, 308)" class="key keypos-66">
<rect rx="6" ry="6" x="-26" y="-26" width="52" height="52" class="key"/>
<text x="0" y="0" class="key tap">END</text>
</g>
<g transform="translate(196, 308)" class="key keypos-67">
<rect rx="6" ry="6" x="-26" y="-26" width="52" height="52" class="key"/>
<text x="0" y="0" class="key tap">LEFT</text>
</g>
<g transform="translate(252, 308)" class="key keypos-68">
<rect rx="6" ry="6" x="-26" y="-26" width="52" height="52" class="key"/>
<text x="0" y="0" class="key tap">RIGHT</text>
</g>
<g transform="translate(314, 356) rotate(15.0)" class="key keypos-69">
<rect rx="6" ry="6" x="-26" y="-26" width="52" height="52" class="key"/>
<text x="0" y="0" class="key tap">BSPC</text>
<text x="0" y="24" class="key hold">cursor</text>
</g>
<g transform="translate(370, 379) rotate(25.0)" class="key keypos-70">
<rect rx="6" ry="6" x="-26" y="-26" width="52" height="52" class="key"/>
<text x="0" y="0" class="key tap">DEL</text>
</g>
<g transform="translate(422, 417) rotate(45.0)" class="key keypos-71">
<rect rx="6" ry="6" x="-26" y="-26" width="52" height="52" class="key"/>
<text x="0" y="0" class="key tap"><tspan style="font-size: 88%">function</tspan></text>
</g>
<g transform="translate(586, 417) rotate(-45.0)" class="key keypos-72">
<rect rx="6" ry="6" x="-26" y="-26" width="52" height="52" class="key"/>
<text x="0" y="0" class="key tap">magic</text>
</g>
<g transform="translate(638, 379) rotate(-25.0)" class="key keypos-73">
<rect rx="6" ry="6" x="-26" y="-26" width="52" height="52" class="key"/>
<text x="0" y="0" class="key tap">RET</text>
<text x="0" y="24" class="key hold">mouse</text>
</g>
<g transform="translate(694, 356) rotate(-15.0)" class="key keypos-74">
<rect rx="6" ry="6" x="-26" y="-26" width="52" height="52" class="key"/>
<text x="0" y="0" class="key tap">SPACE</text>
<text x="0" y="24" class="key hold">symbol</text>
</g>
<g transform="translate(756, 308)" class="key keypos-75">
<rect rx="6" ry="6" x="-26" y="-26" width="52" height="52" class="key"/>
<text x="0" y="0" class="key tap">UP</text>
</g>
<g transform="translate(812, 308)" class="key keypos-76">
<rect rx="6" ry="6" x="-26" y="-26" width="52" height="52" class="key"/>
<text x="0" y="0" class="key tap">DOWN</text>
</g>
<g transform="translate(868, 308)" class="key keypos-77">
<rect rx="6" ry="6" x="-26" y="-26" width="52" height="52" class="key"/>
<text x="0" y="0" class="key tap">[</text>
</g>
<g transform="translate(924, 336)" class="key keypos-78">
<rect rx="6" ry="6" x="-26" y="-26" width="52" height="52" class="key"/>
<text x="0" y="0" class="key tap">]</text>
</g>
<g transform="translate(980, 336)" class="key keypos-79">
<rect rx="6" ry="6" x="-26" y="-26" width="52" height="52" class="key"/>
<text x="0" y="0" class="key tap">
<tspan x="0" dy="-0.6em">PG</tspan><tspan x="0" dy="1.2em">DN</tspan>
</text>
</g>
</g>
</g>
</svg>
